<mxfile host="app.diagrams.net" modified="2023-07-09T18:55:55.522Z" agent="Mozilla/5.0 (Windows NT 10.0; Win64; x64) AppleWebKit/537.36 (KHTML, like Gecko) Chrome/113.0.0.0 Safari/537.36 OPR/99.0.0.0" etag="bpY7x-QHRlhXiUr09YWk" version="21.6.1" type="github">
  <diagram id="piDafpqhtRUU5qUU-vj8" name="Page-1">
    <mxGraphModel dx="2243" dy="1233" grid="1" gridSize="10" guides="1" tooltips="1" connect="1" arrows="1" fold="1" page="1" pageScale="1" pageWidth="1169" pageHeight="827" math="0" shadow="0">
      <root>
        <mxCell id="0" />
        <mxCell id="1" parent="0" />
        <mxCell id="CA_kTGxsJsAhTeSayjLV-10" style="edgeStyle=orthogonalEdgeStyle;rounded=0;orthogonalLoop=1;jettySize=auto;html=1;" edge="1" parent="1" source="CA_kTGxsJsAhTeSayjLV-1" target="CA_kTGxsJsAhTeSayjLV-8">
          <mxGeometry relative="1" as="geometry" />
        </mxCell>
        <mxCell id="CA_kTGxsJsAhTeSayjLV-23" style="edgeStyle=orthogonalEdgeStyle;rounded=0;orthogonalLoop=1;jettySize=auto;html=1;entryX=0.5;entryY=0;entryDx=0;entryDy=0;" edge="1" parent="1" source="CA_kTGxsJsAhTeSayjLV-1" target="CA_kTGxsJsAhTeSayjLV-14">
          <mxGeometry relative="1" as="geometry" />
        </mxCell>
        <mxCell id="CA_kTGxsJsAhTeSayjLV-24" style="edgeStyle=orthogonalEdgeStyle;rounded=0;orthogonalLoop=1;jettySize=auto;html=1;entryX=0.5;entryY=0;entryDx=0;entryDy=0;" edge="1" parent="1" source="CA_kTGxsJsAhTeSayjLV-1" target="CA_kTGxsJsAhTeSayjLV-15">
          <mxGeometry relative="1" as="geometry" />
        </mxCell>
        <mxCell id="CA_kTGxsJsAhTeSayjLV-1" value="Login" style="html=1;whiteSpace=wrap;strokeColor=none;fillColor=#0079D6;labelPosition=center;verticalLabelPosition=middle;verticalAlign=top;align=center;fontSize=12;outlineConnect=0;spacingTop=-6;fontColor=default;sketch=0;shape=mxgraph.sitemap.page;" vertex="1" parent="1">
          <mxGeometry x="370" y="81" width="120" height="70" as="geometry" />
        </mxCell>
        <mxCell id="CA_kTGxsJsAhTeSayjLV-16" style="edgeStyle=orthogonalEdgeStyle;rounded=0;orthogonalLoop=1;jettySize=auto;html=1;entryX=0.5;entryY=0;entryDx=0;entryDy=0;" edge="1" parent="1" source="CA_kTGxsJsAhTeSayjLV-2" target="CA_kTGxsJsAhTeSayjLV-12">
          <mxGeometry relative="1" as="geometry" />
        </mxCell>
        <mxCell id="CA_kTGxsJsAhTeSayjLV-17" style="edgeStyle=orthogonalEdgeStyle;rounded=0;orthogonalLoop=1;jettySize=auto;html=1;entryX=0.5;entryY=0;entryDx=0;entryDy=0;" edge="1" parent="1" target="CA_kTGxsJsAhTeSayjLV-13">
          <mxGeometry relative="1" as="geometry">
            <mxPoint x="710" y="100" as="sourcePoint" />
          </mxGeometry>
        </mxCell>
        <mxCell id="CA_kTGxsJsAhTeSayjLV-2" value="Cadastrar Usuário" style="html=1;whiteSpace=wrap;strokeColor=none;fillColor=#0079D6;labelPosition=center;verticalLabelPosition=middle;verticalAlign=top;align=center;fontSize=12;outlineConnect=0;spacingTop=-6;fontColor=default;sketch=0;shape=mxgraph.sitemap.page;" vertex="1" parent="1">
          <mxGeometry x="690" y="81" width="120" height="70" as="geometry" />
        </mxCell>
        <mxCell id="CA_kTGxsJsAhTeSayjLV-27" style="edgeStyle=orthogonalEdgeStyle;rounded=0;orthogonalLoop=1;jettySize=auto;html=1;entryX=0.5;entryY=0;entryDx=0;entryDy=0;" edge="1" parent="1" source="CA_kTGxsJsAhTeSayjLV-3" target="CA_kTGxsJsAhTeSayjLV-25">
          <mxGeometry relative="1" as="geometry" />
        </mxCell>
        <mxCell id="CA_kTGxsJsAhTeSayjLV-37" style="edgeStyle=orthogonalEdgeStyle;rounded=0;orthogonalLoop=1;jettySize=auto;html=1;entryX=0.5;entryY=0;entryDx=0;entryDy=0;" edge="1" parent="1" source="CA_kTGxsJsAhTeSayjLV-3" target="CA_kTGxsJsAhTeSayjLV-36">
          <mxGeometry relative="1" as="geometry" />
        </mxCell>
        <mxCell id="CA_kTGxsJsAhTeSayjLV-3" value="Home&lt;br&gt;&lt;br&gt;Lista com todos os&lt;br&gt;espaços de trabalho&lt;br&gt;atribuidos aquele user" style="html=1;whiteSpace=wrap;strokeColor=none;fillColor=#0079D6;labelPosition=center;verticalLabelPosition=middle;verticalAlign=top;align=center;fontSize=12;outlineConnect=0;spacingTop=-6;fontColor=default;sketch=0;shape=mxgraph.sitemap.page;" vertex="1" parent="1">
          <mxGeometry x="530" y="321" width="120" height="90" as="geometry" />
        </mxCell>
        <mxCell id="CA_kTGxsJsAhTeSayjLV-30" style="edgeStyle=orthogonalEdgeStyle;rounded=0;orthogonalLoop=1;jettySize=auto;html=1;entryX=0.5;entryY=0;entryDx=0;entryDy=0;" edge="1" parent="1" source="CA_kTGxsJsAhTeSayjLV-4" target="CA_kTGxsJsAhTeSayjLV-29">
          <mxGeometry relative="1" as="geometry" />
        </mxCell>
        <mxCell id="CA_kTGxsJsAhTeSayjLV-4" value="Espaço de Trabalho&lt;br&gt;&lt;br&gt;Lista todos os projetos relacionados a esse espaço de trabalho" style="html=1;whiteSpace=wrap;strokeColor=none;fillColor=#0079D6;labelPosition=center;verticalLabelPosition=middle;verticalAlign=top;align=center;fontSize=12;outlineConnect=0;spacingTop=-6;fontColor=default;sketch=0;shape=mxgraph.sitemap.page;" vertex="1" parent="1">
          <mxGeometry x="390" y="511" width="120" height="100" as="geometry" />
        </mxCell>
        <mxCell id="CA_kTGxsJsAhTeSayjLV-47" style="edgeStyle=orthogonalEdgeStyle;rounded=0;orthogonalLoop=1;jettySize=auto;html=1;entryX=0.5;entryY=0;entryDx=0;entryDy=0;" edge="1" parent="1" source="CA_kTGxsJsAhTeSayjLV-6" target="CA_kTGxsJsAhTeSayjLV-45">
          <mxGeometry relative="1" as="geometry" />
        </mxCell>
        <mxCell id="CA_kTGxsJsAhTeSayjLV-6" value="Grupo&lt;br&gt;&lt;br&gt;Kanban com as tasks relacionadas a esse grupo&lt;br&gt;(sub Kanban)" style="html=1;whiteSpace=wrap;strokeColor=none;fillColor=#0079D6;labelPosition=center;verticalLabelPosition=middle;verticalAlign=top;align=center;fontSize=12;outlineConnect=0;spacingTop=-6;fontColor=default;sketch=0;shape=mxgraph.sitemap.page;" vertex="1" parent="1">
          <mxGeometry x="130" y="921" width="120" height="100" as="geometry" />
        </mxCell>
        <mxCell id="CA_kTGxsJsAhTeSayjLV-34" style="edgeStyle=orthogonalEdgeStyle;rounded=0;orthogonalLoop=1;jettySize=auto;html=1;entryX=0.5;entryY=0;entryDx=0;entryDy=0;" edge="1" parent="1" source="CA_kTGxsJsAhTeSayjLV-7" target="CA_kTGxsJsAhTeSayjLV-33">
          <mxGeometry relative="1" as="geometry" />
        </mxCell>
        <mxCell id="CA_kTGxsJsAhTeSayjLV-42" style="edgeStyle=orthogonalEdgeStyle;rounded=0;orthogonalLoop=1;jettySize=auto;html=1;entryX=0.5;entryY=0;entryDx=0;entryDy=0;" edge="1" parent="1" source="CA_kTGxsJsAhTeSayjLV-7" target="CA_kTGxsJsAhTeSayjLV-41">
          <mxGeometry relative="1" as="geometry" />
        </mxCell>
        <mxCell id="CA_kTGxsJsAhTeSayjLV-7" value="Projeto/Espaço&lt;br&gt;&lt;br&gt;Lista todos os grupos relacionados a esse projeto&lt;br&gt;(Kanban)" style="html=1;whiteSpace=wrap;strokeColor=none;fillColor=#0079D6;labelPosition=center;verticalLabelPosition=middle;verticalAlign=top;align=center;fontSize=12;outlineConnect=0;spacingTop=-6;fontColor=default;sketch=0;shape=mxgraph.sitemap.page;" vertex="1" parent="1">
          <mxGeometry x="260" y="701" width="120" height="100" as="geometry" />
        </mxCell>
        <mxCell id="CA_kTGxsJsAhTeSayjLV-11" style="edgeStyle=orthogonalEdgeStyle;rounded=0;orthogonalLoop=1;jettySize=auto;html=1;entryX=0;entryY=0.5;entryDx=0;entryDy=0;entryPerimeter=0;" edge="1" parent="1" source="CA_kTGxsJsAhTeSayjLV-8" target="CA_kTGxsJsAhTeSayjLV-2">
          <mxGeometry relative="1" as="geometry" />
        </mxCell>
        <mxCell id="CA_kTGxsJsAhTeSayjLV-8" value="Cadastrar novo usuário" style="rounded=1;html=1;shadow=0;dashed=0;whiteSpace=wrap;fontSize=10;fillColor=#dae8fc;align=center;strokeColor=#6c8ebf;labelBackgroundColor=none;" vertex="1" parent="1">
          <mxGeometry x="530" y="107.56" width="120" height="16.88" as="geometry" />
        </mxCell>
        <mxCell id="CA_kTGxsJsAhTeSayjLV-20" style="edgeStyle=orthogonalEdgeStyle;rounded=0;orthogonalLoop=1;jettySize=auto;html=1;entryX=0.5;entryY=0;entryDx=0;entryDy=0;entryPerimeter=0;" edge="1" parent="1" source="CA_kTGxsJsAhTeSayjLV-12" target="CA_kTGxsJsAhTeSayjLV-3">
          <mxGeometry relative="1" as="geometry" />
        </mxCell>
        <mxCell id="CA_kTGxsJsAhTeSayjLV-12" value="Success" style="rhombus;whiteSpace=wrap;html=1;" vertex="1" parent="1">
          <mxGeometry x="670" y="201" width="70" height="70" as="geometry" />
        </mxCell>
        <mxCell id="CA_kTGxsJsAhTeSayjLV-19" style="edgeStyle=orthogonalEdgeStyle;rounded=0;orthogonalLoop=1;jettySize=auto;html=1;entryX=1;entryY=0.5;entryDx=0;entryDy=0;entryPerimeter=0;exitX=1;exitY=0.5;exitDx=0;exitDy=0;" edge="1" parent="1" source="CA_kTGxsJsAhTeSayjLV-13" target="CA_kTGxsJsAhTeSayjLV-2">
          <mxGeometry relative="1" as="geometry">
            <mxPoint x="840" y="107.56" as="targetPoint" />
            <mxPoint x="860" y="237.56" as="sourcePoint" />
          </mxGeometry>
        </mxCell>
        <mxCell id="CA_kTGxsJsAhTeSayjLV-13" value="Failed" style="rhombus;whiteSpace=wrap;html=1;" vertex="1" parent="1">
          <mxGeometry x="760" y="201" width="70" height="70" as="geometry" />
        </mxCell>
        <mxCell id="CA_kTGxsJsAhTeSayjLV-21" style="edgeStyle=orthogonalEdgeStyle;rounded=0;orthogonalLoop=1;jettySize=auto;html=1;entryX=0.5;entryY=0;entryDx=0;entryDy=0;entryPerimeter=0;" edge="1" parent="1" source="CA_kTGxsJsAhTeSayjLV-14" target="CA_kTGxsJsAhTeSayjLV-3">
          <mxGeometry relative="1" as="geometry" />
        </mxCell>
        <mxCell id="CA_kTGxsJsAhTeSayjLV-14" value="Success" style="rhombus;whiteSpace=wrap;html=1;" vertex="1" parent="1">
          <mxGeometry x="440" y="201" width="70" height="70" as="geometry" />
        </mxCell>
        <mxCell id="CA_kTGxsJsAhTeSayjLV-22" style="edgeStyle=orthogonalEdgeStyle;rounded=0;orthogonalLoop=1;jettySize=auto;html=1;entryX=0;entryY=0.5;entryDx=0;entryDy=0;entryPerimeter=0;exitX=0;exitY=0.5;exitDx=0;exitDy=0;" edge="1" parent="1" source="CA_kTGxsJsAhTeSayjLV-15" target="CA_kTGxsJsAhTeSayjLV-1">
          <mxGeometry relative="1" as="geometry" />
        </mxCell>
        <mxCell id="CA_kTGxsJsAhTeSayjLV-15" value="Failed" style="rhombus;whiteSpace=wrap;html=1;" vertex="1" parent="1">
          <mxGeometry x="350" y="201" width="70" height="70" as="geometry" />
        </mxCell>
        <mxCell id="CA_kTGxsJsAhTeSayjLV-28" style="edgeStyle=orthogonalEdgeStyle;rounded=0;orthogonalLoop=1;jettySize=auto;html=1;" edge="1" parent="1" source="CA_kTGxsJsAhTeSayjLV-25" target="CA_kTGxsJsAhTeSayjLV-4">
          <mxGeometry relative="1" as="geometry" />
        </mxCell>
        <mxCell id="CA_kTGxsJsAhTeSayjLV-25" value="Abrir espaço existente" style="rounded=1;html=1;shadow=0;dashed=0;whiteSpace=wrap;fontSize=10;fillColor=#dae8fc;align=center;strokeColor=#6c8ebf;labelBackgroundColor=none;" vertex="1" parent="1">
          <mxGeometry x="390" y="431" width="120" height="16.88" as="geometry" />
        </mxCell>
        <mxCell id="CA_kTGxsJsAhTeSayjLV-32" style="edgeStyle=orthogonalEdgeStyle;rounded=0;orthogonalLoop=1;jettySize=auto;html=1;" edge="1" parent="1" source="CA_kTGxsJsAhTeSayjLV-29" target="CA_kTGxsJsAhTeSayjLV-7">
          <mxGeometry relative="1" as="geometry" />
        </mxCell>
        <mxCell id="CA_kTGxsJsAhTeSayjLV-29" value="Abrir projeto existente" style="rounded=1;html=1;shadow=0;dashed=0;whiteSpace=wrap;fontSize=10;fillColor=#dae8fc;align=center;strokeColor=#6c8ebf;labelBackgroundColor=none;" vertex="1" parent="1">
          <mxGeometry x="260" y="631" width="120" height="16.88" as="geometry" />
        </mxCell>
        <mxCell id="CA_kTGxsJsAhTeSayjLV-35" style="edgeStyle=orthogonalEdgeStyle;rounded=0;orthogonalLoop=1;jettySize=auto;html=1;entryX=0.5;entryY=0;entryDx=0;entryDy=0;entryPerimeter=0;" edge="1" parent="1" source="CA_kTGxsJsAhTeSayjLV-33" target="CA_kTGxsJsAhTeSayjLV-6">
          <mxGeometry relative="1" as="geometry" />
        </mxCell>
        <mxCell id="CA_kTGxsJsAhTeSayjLV-33" value="Abrir grupo" style="rounded=1;html=1;shadow=0;dashed=0;whiteSpace=wrap;fontSize=10;fillColor=#dae8fc;align=center;strokeColor=#6c8ebf;labelBackgroundColor=none;" vertex="1" parent="1">
          <mxGeometry x="130" y="841" width="120" height="16.88" as="geometry" />
        </mxCell>
        <mxCell id="CA_kTGxsJsAhTeSayjLV-39" style="edgeStyle=orthogonalEdgeStyle;rounded=0;orthogonalLoop=1;jettySize=auto;html=1;entryX=0.5;entryY=0;entryDx=0;entryDy=0;entryPerimeter=0;" edge="1" parent="1" source="CA_kTGxsJsAhTeSayjLV-36" target="CA_kTGxsJsAhTeSayjLV-38">
          <mxGeometry relative="1" as="geometry" />
        </mxCell>
        <mxCell id="CA_kTGxsJsAhTeSayjLV-36" value="Criar espaço" style="rounded=1;html=1;shadow=0;dashed=0;whiteSpace=wrap;fontSize=10;fillColor=#dae8fc;align=center;strokeColor=#6c8ebf;labelBackgroundColor=none;" vertex="1" parent="1">
          <mxGeometry x="670" y="431" width="120" height="16.88" as="geometry" />
        </mxCell>
        <mxCell id="CA_kTGxsJsAhTeSayjLV-38" value="Cadastrar&lt;br&gt;&lt;br&gt;Criação de Espaço &lt;br&gt;de Trabalho" style="html=1;whiteSpace=wrap;strokeColor=none;fillColor=#0079D6;labelPosition=center;verticalLabelPosition=middle;verticalAlign=top;align=center;fontSize=12;outlineConnect=0;spacingTop=-6;fontColor=default;sketch=0;shape=mxgraph.sitemap.page;" vertex="1" parent="1">
          <mxGeometry x="670" y="511" width="120" height="100" as="geometry" />
        </mxCell>
        <mxCell id="CA_kTGxsJsAhTeSayjLV-44" style="edgeStyle=orthogonalEdgeStyle;rounded=0;orthogonalLoop=1;jettySize=auto;html=1;" edge="1" parent="1" source="CA_kTGxsJsAhTeSayjLV-41" target="CA_kTGxsJsAhTeSayjLV-43">
          <mxGeometry relative="1" as="geometry" />
        </mxCell>
        <mxCell id="CA_kTGxsJsAhTeSayjLV-41" value="Detalhes de Task" style="rounded=1;html=1;shadow=0;dashed=0;whiteSpace=wrap;fontSize=10;fillColor=#dae8fc;align=center;strokeColor=#6c8ebf;labelBackgroundColor=none;" vertex="1" parent="1">
          <mxGeometry x="390" y="841" width="120" height="16.88" as="geometry" />
        </mxCell>
        <mxCell id="CA_kTGxsJsAhTeSayjLV-43" value="Detalhes&lt;br&gt;&lt;br&gt;Mostra os detalhes de alguma task específica em formato de modal" style="html=1;whiteSpace=wrap;strokeColor=none;fillColor=#0079D6;labelPosition=center;verticalLabelPosition=middle;verticalAlign=top;align=center;fontSize=12;outlineConnect=0;spacingTop=-6;fontColor=default;sketch=0;shape=mxgraph.sitemap.page;" vertex="1" parent="1">
          <mxGeometry x="390" y="921" width="120" height="100" as="geometry" />
        </mxCell>
        <mxCell id="CA_kTGxsJsAhTeSayjLV-48" style="edgeStyle=orthogonalEdgeStyle;rounded=0;orthogonalLoop=1;jettySize=auto;html=1;" edge="1" parent="1" source="CA_kTGxsJsAhTeSayjLV-45" target="CA_kTGxsJsAhTeSayjLV-46">
          <mxGeometry relative="1" as="geometry" />
        </mxCell>
        <mxCell id="CA_kTGxsJsAhTeSayjLV-45" value="Detalhes de Task" style="rounded=1;html=1;shadow=0;dashed=0;whiteSpace=wrap;fontSize=10;fillColor=#dae8fc;align=center;strokeColor=#6c8ebf;labelBackgroundColor=none;" vertex="1" parent="1">
          <mxGeometry x="130" y="1071" width="120" height="16.88" as="geometry" />
        </mxCell>
        <mxCell id="CA_kTGxsJsAhTeSayjLV-46" value="Detalhes&lt;br&gt;&lt;br&gt;Mostra os detalhes de alguma task específica em formato de modal" style="html=1;whiteSpace=wrap;strokeColor=none;fillColor=#0079D6;labelPosition=center;verticalLabelPosition=middle;verticalAlign=top;align=center;fontSize=12;outlineConnect=0;spacingTop=-6;fontColor=default;sketch=0;shape=mxgraph.sitemap.page;" vertex="1" parent="1">
          <mxGeometry x="130" y="1141" width="120" height="100" as="geometry" />
        </mxCell>
      </root>
    </mxGraphModel>
  </diagram>
</mxfile>
